<svg width="53" height="8" viewBox="0 0 53 8" fill="none" xmlns="http://www.w3.org/2000/svg">
<g clip-path="url(#clip0)">
<path fill-rule="evenodd" clip-rule="evenodd" d="M45.3278 0.173314L41.2937 7.13234L42.1171 7.60585L46.1513 0.646817L45.3278 0.173314ZM50.8001 3.95289L47.8082 6.93259L48.4808 7.60223L52.1449 3.95289L48.4808 0.303565L47.8082 0.973196L50.8001 3.95289ZM1.84471 3.95296L4.8365 0.973267L4.16416 0.303636L0.5 3.95296L4.16416 7.60227L4.8365 6.93267L1.84471 3.95296Z" fill="url(#paint0_linear)"/>
<path d="M12.9092 1.9811C12.3112 1.9811 11.8529 2.16074 11.5344 2.52001C11.2214 2.87392 11.0649 3.36725 11.0649 4C11.0649 4.30028 11.1012 4.57644 11.1739 4.82846C11.2521 5.07513 11.3639 5.28694 11.5092 5.46389C11.6601 5.64085 11.8445 5.78027 12.0625 5.88215C12.286 5.97867 12.5459 6.02693 12.8421 6.02693C13.0265 6.02693 13.1858 6.02157 13.3199 6.01084C13.4541 5.99476 13.5603 5.97599 13.6385 5.95454V3.95173H14.6948V6.63018C14.5495 6.68381 14.3036 6.74279 13.9571 6.80714C13.6106 6.87149 13.211 6.90366 12.7583 6.90366C12.3391 6.90366 11.9563 6.83931 11.6098 6.71062C11.2633 6.58192 10.9671 6.39424 10.7212 6.14758C10.4809 5.90092 10.2937 5.59795 10.1595 5.23868C10.0254 4.87941 9.95834 4.46651 9.95834 4C9.95834 3.53348 10.031 3.12058 10.1763 2.76131C10.3272 2.40204 10.5312 2.09907 10.7883 1.85241C11.0453 1.60038 11.3471 1.41002 11.6936 1.28133C12.0401 1.15263 12.409 1.08829 12.8002 1.08829C13.0685 1.08829 13.306 1.10706 13.5128 1.14459C13.7251 1.17676 13.9068 1.2143 14.0577 1.2572C14.2085 1.3001 14.3315 1.34568 14.4265 1.39394C14.5271 1.4422 14.597 1.47705 14.6361 1.4985L14.3175 2.32697C14.1499 2.23045 13.9403 2.15002 13.6888 2.08567C13.4429 2.01596 13.183 1.9811 12.9092 1.9811Z" fill="#1F1F1F"/>
<path d="M17.0053 6.26019C17.0053 6.44787 16.9382 6.60069 16.8041 6.71866C16.6755 6.83663 16.5191 6.89562 16.3346 6.89562C16.1446 6.89562 15.9853 6.83663 15.8568 6.71866C15.7283 6.60069 15.664 6.44787 15.664 6.26019C15.664 6.07251 15.7283 5.91968 15.8568 5.80171C15.9853 5.67838 16.1446 5.61672 16.3346 5.61672C16.5191 5.61672 16.6755 5.67838 16.8041 5.80171C16.9382 5.91968 17.0053 6.07251 17.0053 6.26019Z" fill="#1F1F1F"/>
<path d="M21.814 5.91432V6.79105H18.1422V1.21698H19.1985V5.91432H21.814Z" fill="#1F1F1F"/>
<path d="M24.7276 6.9117C24.3308 6.9117 23.9899 6.85808 23.7048 6.75083C23.4198 6.63823 23.1823 6.48272 22.9923 6.28432C22.8078 6.08591 22.6709 5.85266 22.5815 5.58454C22.4921 5.31643 22.4474 5.02151 22.4474 4.69977V1.21698H23.512V4.60325C23.512 4.85528 23.54 5.07245 23.5958 5.25476C23.6573 5.43172 23.7412 5.5765 23.8473 5.68911C23.9591 5.80171 24.0877 5.88483 24.233 5.93845C24.3839 5.99207 24.5515 6.01889 24.7359 6.01889C24.9204 6.01889 25.088 5.99207 25.2389 5.93845C25.3898 5.88483 25.5184 5.80171 25.6245 5.68911C25.7363 5.5765 25.8201 5.43172 25.876 5.25476C25.9375 5.07245 25.9682 4.85528 25.9682 4.60325V1.21698H27.0329V4.69977C27.0329 5.02151 26.9854 5.31643 26.8904 5.58454C26.801 5.85266 26.6612 6.08591 26.4712 6.28432C26.2868 6.48272 26.0493 6.63823 25.7587 6.75083C25.4681 6.85808 25.1244 6.9117 24.7276 6.9117Z" fill="#1F1F1F"/>
<path d="M28.3836 1.21698H29.4399V6.79105H28.3836V1.21698Z" fill="#1F1F1F"/>
<path d="M33.5475 1.9811C32.9495 1.9811 32.4912 2.16074 32.1727 2.52001C31.8597 2.87392 31.7032 3.36725 31.7032 4C31.7032 4.30028 31.7396 4.57644 31.8122 4.82846C31.8905 5.07513 32.0022 5.28694 32.1475 5.46389C32.2984 5.64085 32.4829 5.78027 32.7008 5.88215C32.9244 5.97867 33.1842 6.02693 33.4804 6.02693C33.6649 6.02693 33.8241 6.02157 33.9583 6.01084C34.0924 5.99476 34.1986 5.97599 34.2768 5.95454V3.95173H35.3331V6.63018C35.1878 6.68381 34.9419 6.74279 34.5954 6.80714C34.2489 6.87149 33.8493 6.90366 33.3966 6.90366C32.9775 6.90366 32.5946 6.83931 32.2481 6.71062C31.9016 6.58192 31.6054 6.39424 31.3595 6.14758C31.1192 5.90092 30.932 5.59795 30.7979 5.23868C30.6637 4.87941 30.5967 4.46651 30.5967 4C30.5967 3.53348 30.6693 3.12058 30.8146 2.76131C30.9655 2.40204 31.1695 2.09907 31.4266 1.85241C31.6837 1.60038 31.9855 1.41002 32.332 1.28133C32.6785 1.15263 33.0473 1.08829 33.4385 1.08829C33.7068 1.08829 33.9443 1.10706 34.1511 1.14459C34.3634 1.17676 34.5451 1.2143 34.696 1.2572C34.8469 1.3001 34.9698 1.34568 35.0648 1.39394C35.1654 1.4422 35.2353 1.47705 35.2744 1.4985L34.9559 2.32697C34.7882 2.23045 34.5786 2.15002 34.3271 2.08567C34.0812 2.01596 33.8213 1.9811 33.5475 1.9811Z" fill="#1F1F1F"/>
<path d="M36.5538 1.21698H37.6101V6.79105H36.5538V1.21698Z" fill="#1F1F1F"/>
</g>
<defs>
<linearGradient id="paint0_linear" x1="11.6725" y1="-2.60436" x2="6.48268" y2="18.4763" gradientUnits="userSpaceOnUse">
<stop stop-color="#284BFF"/>
<stop offset="1" stop-color="#FB28FF"/>
</linearGradient>
<clipPath id="clip0">
<rect x="0.5" width="52" height="8" fill="white"/>
</clipPath>
</defs>
</svg>
