<svg width="53" height="9" viewBox="0 0 53 9" fill="none" xmlns="http://www.w3.org/2000/svg">
<g clip-path="url(#clip0)">
<path fill-rule="evenodd" clip-rule="evenodd" d="M45.3278 0.673317L41.2937 7.63234L42.1171 8.10586L46.1513 1.14682L45.3278 0.673317ZM50.8001 4.4529L47.8082 7.43259L48.4808 8.10223L52.1449 4.4529L48.4808 0.803568L47.8082 1.4732L50.8001 4.4529ZM1.84471 4.45297L4.8365 1.47327L4.16416 0.803639L0.5 4.45297L4.16416 8.10228L4.8365 7.43268L1.84471 4.45297Z" fill="url(#paint0_linear)"/>
<path d="M12.9092 2.4811C12.3112 2.4811 11.8529 2.66074 11.5344 3.02001C11.2214 3.37392 11.0649 3.86725 11.0649 4.5C11.0649 4.80028 11.1012 5.07644 11.1739 5.32846C11.2521 5.57513 11.3639 5.78694 11.5092 5.96389C11.6601 6.14085 11.8445 6.28027 12.0625 6.38215C12.286 6.47867 12.5459 6.52693 12.8421 6.52693C13.0265 6.52693 13.1858 6.52157 13.3199 6.51084C13.4541 6.49476 13.5603 6.47599 13.6385 6.45454V4.45173H14.6948V7.13018C14.5495 7.18381 14.3036 7.24279 13.9571 7.30714C13.6106 7.37149 13.211 7.40366 12.7583 7.40366C12.3391 7.40366 11.9563 7.33931 11.6098 7.21062C11.2633 7.08192 10.9671 6.89424 10.7212 6.64758C10.4809 6.40092 10.2937 6.09795 10.1595 5.73868C10.0254 5.37941 9.95834 4.96651 9.95834 4.5C9.95834 4.03348 10.031 3.62058 10.1763 3.26131C10.3272 2.90204 10.5312 2.59907 10.7883 2.35241C11.0453 2.10038 11.3471 1.91002 11.6936 1.78133C12.0401 1.65263 12.409 1.58829 12.8002 1.58829C13.0685 1.58829 13.306 1.60706 13.5128 1.64459C13.7251 1.67676 13.9068 1.7143 14.0577 1.7572C14.2085 1.8001 14.3315 1.84568 14.4265 1.89394C14.5271 1.9422 14.597 1.97705 14.6361 1.9985L14.3175 2.82697C14.1499 2.73045 13.9403 2.65002 13.6888 2.58567C13.4429 2.51596 13.183 2.4811 12.9092 2.4811Z" fill="white"/>
<path d="M17.0053 6.76019C17.0053 6.94787 16.9382 7.10069 16.8041 7.21866C16.6755 7.33663 16.5191 7.39562 16.3346 7.39562C16.1446 7.39562 15.9853 7.33663 15.8568 7.21866C15.7283 7.10069 15.664 6.94787 15.664 6.76019C15.664 6.57251 15.7283 6.41968 15.8568 6.30171C15.9853 6.17838 16.1446 6.11672 16.3346 6.11672C16.5191 6.11672 16.6755 6.17838 16.8041 6.30171C16.9382 6.41968 17.0053 6.57251 17.0053 6.76019Z" fill="white"/>
<path d="M21.814 6.41432V7.29105H18.1422V1.71698H19.1985V6.41432H21.814Z" fill="white"/>
<path d="M24.7276 7.4117C24.3308 7.4117 23.9899 7.35808 23.7048 7.25083C23.4198 7.13823 23.1823 6.98272 22.9923 6.78432C22.8078 6.58591 22.6709 6.35266 22.5815 6.08454C22.4921 5.81643 22.4474 5.52151 22.4474 5.19977V1.71698H23.512V5.10325C23.512 5.35528 23.54 5.57245 23.5958 5.75476C23.6573 5.93172 23.7412 6.0765 23.8473 6.18911C23.9591 6.30171 24.0877 6.38483 24.233 6.43845C24.3839 6.49207 24.5515 6.51889 24.7359 6.51889C24.9204 6.51889 25.088 6.49207 25.2389 6.43845C25.3898 6.38483 25.5184 6.30171 25.6245 6.18911C25.7363 6.0765 25.8201 5.93172 25.876 5.75476C25.9375 5.57245 25.9682 5.35528 25.9682 5.10325V1.71698H27.0329V5.19977C27.0329 5.52151 26.9854 5.81643 26.8904 6.08454C26.801 6.35266 26.6612 6.58591 26.4712 6.78432C26.2868 6.98272 26.0493 7.13823 25.7587 7.25083C25.4681 7.35808 25.1244 7.4117 24.7276 7.4117Z" fill="white"/>
<path d="M28.3836 1.71698H29.4399V7.29105H28.3836V1.71698Z" fill="white"/>
<path d="M33.5475 2.4811C32.9495 2.4811 32.4912 2.66074 32.1727 3.02001C31.8597 3.37392 31.7032 3.86725 31.7032 4.5C31.7032 4.80028 31.7396 5.07644 31.8122 5.32846C31.8905 5.57513 32.0022 5.78694 32.1475 5.96389C32.2984 6.14085 32.4829 6.28027 32.7008 6.38215C32.9244 6.47867 33.1842 6.52693 33.4804 6.52693C33.6649 6.52693 33.8241 6.52157 33.9583 6.51084C34.0924 6.49476 34.1986 6.47599 34.2768 6.45454V4.45173H35.3331V7.13018C35.1878 7.18381 34.9419 7.24279 34.5954 7.30714C34.2489 7.37149 33.8493 7.40366 33.3966 7.40366C32.9775 7.40366 32.5946 7.33931 32.2481 7.21062C31.9016 7.08192 31.6054 6.89424 31.3595 6.64758C31.1192 6.40092 30.932 6.09795 30.7979 5.73868C30.6637 5.37941 30.5967 4.96651 30.5967 4.5C30.5967 4.03348 30.6693 3.62058 30.8146 3.26131C30.9655 2.90204 31.1695 2.59907 31.4266 2.35241C31.6837 2.10038 31.9855 1.91002 32.332 1.78133C32.6785 1.65263 33.0473 1.58829 33.4385 1.58829C33.7068 1.58829 33.9443 1.60706 34.1511 1.64459C34.3634 1.67676 34.5451 1.7143 34.696 1.7572C34.8469 1.8001 34.9698 1.84568 35.0648 1.89394C35.1654 1.9422 35.2353 1.97705 35.2744 1.9985L34.9559 2.82697C34.7882 2.73045 34.5786 2.65002 34.3271 2.58567C34.0812 2.51596 33.8213 2.4811 33.5475 2.4811Z" fill="white"/>
<path d="M36.5538 1.71698H37.6101V7.29105H36.5538V1.71698Z" fill="white"/>
</g>
<defs>
<linearGradient id="paint0_linear" x1="11.6725" y1="-2.10436" x2="6.48268" y2="18.9763" gradientUnits="userSpaceOnUse">
<stop stop-color="#284BFF"/>
<stop offset="1" stop-color="#FB28FF"/>
</linearGradient>
<clipPath id="clip0">
<rect x="0.5" y="0.5" width="52" height="8" fill="white"/>
</clipPath>
</defs>
</svg>
